<svg xmlns="http://www.w3.org/2000/svg" viewBox="0 0 32 32" shape-rendering="crispEdges">
  <rect width="32" height="32" fill="#06080d"/>
  <!-- cabinet -->
  <rect x="5" y="3" width="22" height="1" fill="#1b2130"/>
  <rect x="5" y="4" width="1" height="19" fill="#1b2130"/>
  <rect x="26" y="4" width="1" height="19" fill="#1b2130"/>
  <rect x="5" y="23" width="22" height="1" fill="#1b2130"/>
  <!-- screen -->
  <rect x="7" y="5" width="18" height="16" fill="#0a0e15"/>
  <!-- slot -->
  <rect x="11" y="8" width="10" height="1" fill="#06080d"/>
  <rect x="11" y="9" width="1" height="5" fill="#06080d"/>
  <rect x="20" y="9" width="1" height="5" fill="#06080d"/>
  <rect x="11" y="13" width="10" height="1" fill="#06080d"/>
  <!-- coin -->
  <rect x="13" y="5" width="6" height="1" fill="#27ff7d"/>
  <rect x="12" y="6" width="1" height="2" fill="#27ff7d"/>
  <rect x="19" y="6" width="1" height="2" fill="#27ff7d"/>
  <rect x="13" y="8" width="6" height="1" fill="#27ff7d"/>
  <rect x="14" y="6" width="2" height="1" fill="#e7ece5"/>
  <!-- label -->
  <rect x="12" y="15" width="8" height="1" fill="#2bd9ff"/>
  <!-- wallet -->
  <rect x="13" y="17" width="6" height="1" fill="#ffb437"/>
  <rect x="12" y="18" width="1" height="2" fill="#ffb437"/>
  <rect x="19" y="18" width="1" height="2" fill="#ffb437"/>
  <rect x="13" y="20" width="6" height="1" fill="#ffb437"/>
  <!-- AI LED -->
  <rect x="23" y="6" width="1" height="1" fill="#ff3da6"/>
  <!-- feet -->
  <rect x="8" y="24" width="3" height="1" fill="#1b2130"/>
  <rect x="21" y="24" width="3" height="1" fill="#1b2130"/>
  <rect x="6" y="26" width="20" height="1" fill="#1b2130"/>
</svg>
